<svg width="24" height="24" viewBox="0 0 24 24" fill="none" xmlns="http://www.w3.org/2000/svg">
<circle cx="12" cy="12" r="12" fill="#0F4E23"/>
<path fill-rule="evenodd" clip-rule="evenodd" d="M9.99523 7.99996C9.4015 7.99996 8.96967 8.34686 8.57155 9.00983C8.38201 9.32548 7.97246 9.42771 7.65681 9.23816C7.34116 9.04861 7.23894 8.63907 7.42848 8.32342C7.92833 7.49103 8.7147 6.66663 9.99523 6.66663C10.61 6.66663 11.1403 6.82418 11.5866 7.12314C12.0261 7.41745 12.3455 7.82269 12.5877 8.26057C13.0338 9.06698 13.2773 10.1049 13.4956 11.0352C13.507 11.084 13.5184 11.1324 13.5297 11.1806C13.7707 12.2046 13.9957 13.0955 14.3836 13.7393C14.5697 14.0481 14.7785 14.2727 15.0208 14.4223C15.2586 14.5691 15.5656 14.6666 15.9879 14.6666C16.5877 14.6666 17.0173 14.3173 17.434 13.6477C17.6285 13.3351 18.0396 13.2394 18.3522 13.4339C18.6648 13.6285 18.7606 14.0396 18.566 14.3522C18.057 15.1702 17.2757 16 15.9879 16C15.3459 16 14.7911 15.8474 14.3203 15.5568C13.8539 15.2688 13.5073 14.8685 13.2415 14.4273C12.7257 13.5711 12.4615 12.462 12.2318 11.486C12.2279 11.4693 12.224 11.4526 12.22 11.436C11.9818 10.4233 11.7755 9.54681 11.421 8.90601C11.2483 8.59389 11.0584 8.37413 10.8447 8.23095C10.6378 8.09241 10.371 7.99996 9.99523 7.99996Z" fill="#DAFFC2"/>
</svg>
