<svg width="32" height="32" viewBox="0 0 32 32" fill="none" xmlns="http://www.w3.org/2000/svg">
<circle cx="16" cy="16" r="16" fill="#E0F0E5"/>
<g clip-path="url(#clip0_1_44349)">
<path d="M20.1776 12.4445C20.0007 11.9425 19.6776 11.5049 19.2499 11.1881C18.8222 10.8713 18.3094 10.6897 17.7776 10.6667H14.2221C13.5148 10.6667 12.8366 10.9477 12.3365 11.4478C11.8364 11.9479 11.5554 12.6262 11.5554 13.3334C11.5554 14.0407 11.8364 14.7189 12.3365 15.219C12.8366 15.7191 13.5148 16.0001 14.2221 16.0001H17.7776C18.4849 16.0001 19.1632 16.281 19.6633 16.7811C20.1634 17.2812 20.4443 17.9595 20.4443 18.6667C20.4443 19.374 20.1634 20.0523 19.6633 20.5524C19.1632 21.0525 18.4849 21.3334 17.7776 21.3334H14.2221C13.6903 21.3105 13.1776 21.1289 12.7498 20.812C12.3221 20.4952 11.999 20.0576 11.8221 19.5556" stroke="#141414" stroke-width="2" stroke-linecap="round" stroke-linejoin="round"/>
<path d="M16 21.3333V24M16 8V10.6667V8Z" stroke="#141414" stroke-width="2" stroke-linecap="round" stroke-linejoin="round"/>
</g>
<defs>
<clipPath id="clip0_1_44349">
<rect width="21.3333" height="21.3333" fill="white" transform="translate(5.33325 5.33337)"/>
</clipPath>
</defs>
</svg>
