<svg width="40" height="40" viewBox="0 0 40 40" fill="none" xmlns="http://www.w3.org/2000/svg">
<circle cx="20" cy="20" r="20" fill="#BFE5A6"/>
<path d="M26.8699 13.39L21.0099 10.78C20.1499 10.4 18.8499 10.4 17.9899 10.78L12.1299 13.39C10.6499 14.05 10.4299 14.95 10.4299 15.43C10.4299 15.91 10.6499 16.81 12.1299 17.47L17.9899 20.08C18.4199 20.27 18.9599 20.37 19.4999 20.37C20.0399 20.37 20.5799 20.27 21.0099 20.08L26.8699 17.47C28.3499 16.81 28.5699 15.91 28.5699 15.43C28.5699 14.95 28.3599 14.05 26.8699 13.39Z" fill="#141414"/>
<path d="M19.5001 25.54C19.1201 25.54 18.7401 25.46 18.3901 25.31L11.6501 22.31C10.6201 21.85 9.82007 20.62 9.82007 19.49C9.82007 19.08 10.1501 18.75 10.5601 18.75C10.9701 18.75 11.3001 19.08 11.3001 19.49C11.3001 20.03 11.7501 20.73 12.2501 20.95L18.9901 23.95C19.3101 24.09 19.6801 24.09 20.0001 23.95L26.7401 20.95C27.2401 20.73 27.6901 20.04 27.6901 19.49C27.6901 19.08 28.0201 18.75 28.4301 18.75C28.8401 18.75 29.1701 19.08 29.1701 19.49C29.1701 20.61 28.3701 21.85 27.3401 22.31L20.6001 25.31C20.2601 25.46 19.8801 25.54 19.5001 25.54Z" fill="#141414"/>
<path d="M19.5001 30.5C19.1201 30.5 18.7401 30.42 18.3901 30.27L11.6501 27.27C10.5401 26.78 9.82007 25.67 9.82007 24.45C9.82007 24.04 10.1501 23.71 10.5601 23.71C10.9701 23.71 11.3001 24.04 11.3001 24.45C11.3001 25.08 11.6701 25.65 12.2501 25.91L18.9901 28.91C19.3101 29.05 19.6801 29.05 20.0001 28.91L26.7401 25.91C27.3101 25.66 27.6901 25.08 27.6901 24.45C27.6901 24.04 28.0201 23.71 28.4301 23.71C28.8401 23.71 29.1701 24.04 29.1701 24.45C29.1701 25.67 28.4501 26.77 27.3401 27.27L20.6001 30.27C20.2601 30.42 19.8801 30.5 19.5001 30.5Z" fill="#141414"/>
</svg>
