<svg width="32" height="32" viewBox="0 0 32 32" fill="none" xmlns="http://www.w3.org/2000/svg">
<circle cx="16" cy="16" r="16" fill="#0F4E23"/>
<path fill-rule="evenodd" clip-rule="evenodd" d="M13.9911 10.7162C13.9008 10.2947 13.2992 10.2946 13.2089 10.7162L12.2533 15.1758C12.0161 16.2824 11.0382 17.0729 9.90653 17.0729H8.8C8.35817 17.0729 8 16.7147 8 16.2729C8 15.8311 8.35817 15.4729 8.8 15.4729H9.90653C10.2838 15.4729 10.6097 15.2094 10.6888 14.8405L11.6444 10.381C12.0961 8.27308 15.1039 8.27306 15.5556 10.381L18.0089 21.8296C18.0992 22.2512 18.7008 22.2512 18.7911 21.8296L19.7467 17.37C19.9839 16.2635 20.9618 15.4729 22.0935 15.4729H23.2C23.6418 15.4729 24 15.8311 24 16.2729C24 16.7147 23.6418 17.0729 23.2 17.0729H22.0935C21.7162 17.0729 21.3903 17.3364 21.3112 17.7053L20.3556 22.1648C19.9039 24.2728 16.8961 24.2728 16.4444 22.1648L13.9911 10.7162Z" fill="white"/>
</svg>
