<svg width="48" height="48" viewBox="0 0 48 48" fill="none" xmlns="http://www.w3.org/2000/svg">
<circle cx="24" cy="24" r="24" fill="#DEE385"/>
<rect width="24" height="24" transform="translate(12 12)" fill="#DEE385"/>
<path d="M16.2746 28.2032C15.6469 29.7682 15.25 31.597 15.25 33.7492C15.25 34.3015 15.6977 34.7492 16.25 34.7492C16.8023 34.7492 17.25 34.3015 17.25 33.7492C17.25 32.2158 17.4785 30.8747 17.8624 29.6916C17.618 29.7144 17.3704 29.7332 17.1197 29.7479C16.7121 29.7718 16.3603 29.4654 16.3281 29.0584C16.3052 28.769 16.2874 28.4839 16.2746 28.2032Z" fill="#141414"/>
<path d="M32.1003 13.4849C28.4189 12.8529 24.2198 13.4453 21.0485 15.8931C17.9862 18.2568 16.004 22.2549 16.2746 28.2039C17.6848 24.6881 20.2596 22.5041 22.1146 20.9777C22.5411 20.6268 23.1713 20.688 23.5222 21.1145C23.8731 21.541 23.8119 22.1712 23.3854 22.5221C21.4318 24.1296 18.9839 26.2363 17.8624 29.6923C21.4425 29.3585 24.3484 28.1651 26.8747 26.34L26.9227 26.3053C27.4715 25.9089 27.9621 25.5545 28.3176 25.1827C28.7189 24.763 28.979 24.2931 29.0511 23.671C29.1572 22.7561 28.7081 22.0031 28.2619 21.4567C28.1428 21.3109 28.0171 21.1716 27.8915 21.0398C29.2645 20.6615 30.426 20.1016 31.2738 19.2167C32.4192 18.0213 32.873 16.3639 32.7216 14.1724C32.6978 13.8274 32.4412 13.5434 32.1003 13.4849Z" fill="#141414"/>
</svg>
